# xmcd
#
# Track frame offsets: 
#        150
#        23347
#        34299
#        56706
#        76740
#        94157
#        113037
#        128214
#        137628
#        149900
#        171882
#        193722
#        206561
#        221863
#        238480
#
# Disc length: 3517 seconds
#
# Revision: 2
# Processed by: cddbd v1.5PL3 Copyright (c) Steve Scherf et al.
# Submitted via: ExactAudioCopy v0.90b4
#
DISCID=e30dbb0f
DTITLE=The Cranberries - To The Faithful Departed
DYEAR=1996
DGENRE=Pop
TTITLE0=Hollywood
TTITLE1=Salvation
TTITLE2=When You're Gone
TTITLE3=Free To Decide
TTITLE4=War Child
TTITLE5=Forever Yellow Skies
TTITLE6=The Rebels
TTITLE7=Intermission
TTITLE8=I Just Shot John Lennon
TTITLE9=Electric Blue
TTITLE10=I'm Still Remembering
TTITLE11=Will You Remember
TTITLE12=Joe
TTITLE13=Cordell
TTITLE14=Bosnia
EXTD=ID3G:   0
EXTT0=
EXTT1=
EXTT2=
EXTT3=
EXTT4=
EXTT5=
EXTT6=
EXTT7=
EXTT8=
EXTT9=
EXTT10=
EXTT11=
EXTT12=
EXTT13=
EXTT14=
PLAYORDER=
